<mxfile host="app.diagrams.net" modified="2023-05-20T09:13:14.475Z" agent="Mozilla/5.0 (Windows NT 10.0; Win64; x64) AppleWebKit/537.36 (KHTML, like Gecko) Chrome/113.0.0.0 Safari/537.36 Edg/113.0.1774.42" etag="p-Ap0Pu-fMYR57MMEYWK" version="21.3.2" type="device" pages="2">
  <diagram name="function" id="hT1Ywfh6SvQfCL9Nsf9-">
    <mxGraphModel dx="519" dy="297" grid="1" gridSize="10" guides="1" tooltips="1" connect="1" arrows="1" fold="1" page="1" pageScale="1" pageWidth="850" pageHeight="1100" math="0" shadow="0">
      <root>
        <mxCell id="0" />
        <mxCell id="1" parent="0" />
        <mxCell id="VE-JsfOYYxwzHxKVbU2H-5" value="main.py" style="swimlane;whiteSpace=wrap;html=1;" parent="1" vertex="1">
          <mxGeometry x="180" y="20" width="510" height="270" as="geometry" />
        </mxCell>
        <mxCell id="VE-JsfOYYxwzHxKVbU2H-7" value="+&amp;nbsp;configDatabase(dbName): tạo ra một database mới với tên file database là dbName và tạo bên trong đó các table cần thiết&lt;br&gt;+ registerNode: nhập các node hiện đang có vào trong table&amp;nbsp;&lt;br&gt;+ configMQTT(broker, topic, port, tableName, lock): tạo một client để kết nối với &quot;broker&quot; trên &quot;port&quot;, subcribe tới &quot;topic&quot;, lấy dữ liệu từ topic đó rồi insert data lấy được vào database với table tương ứng, và log dữ liệu ra logger, trong đây có một hàm while() để loop process trong này, trong chương trình main chúng ta có sử dụng cơ chế multiprocess, nên parameter lock ở đây có dụng tránh các vùng nhớ dùng chung trong các process xung đột với nhau.&lt;br&gt;+&amp;nbsp;sendSensorToBackend(args): có tác dụng gửi bản tin dữ liệu sensorData và actuatorData đến các topic tương ứng của từng loại dữ liệu&lt;br&gt;+&amp;nbsp;getAverageData(): có tác dụng tính ra các giá trị trung bình tương ứng để gửi về cho Server, đối với dữ liệu Sensor thì sẽ tính giá trị trung bình của một khoảng các giá trị nhất định còn đối với dữ liệu Actuator thì sẽ tính lấy giá trị sớm nhất để gửi về Server&amp;nbsp;&lt;br&gt;+ main(): có tác dụng chạy hàm configDatabase để tạo ra một database kèm theo các table tương ứng rồi sau đó tạo ra các process khác nhau để lấy các dữ liệu cần thiết từ các topic được cung cấp&lt;br&gt;&amp;nbsp;&amp;nbsp;&lt;span style=&quot;font-family: Consolas, &amp;quot;Courier New&amp;quot;, monospace; font-size: 14px; color: rgb(145, 146, 136);&quot;&gt;&lt;br&gt;&lt;/span&gt;" style="text;html=1;strokeColor=none;fillColor=none;align=left;verticalAlign=top;whiteSpace=wrap;rounded=0;horizontal=1;" parent="VE-JsfOYYxwzHxKVbU2H-5" vertex="1">
          <mxGeometry y="20" width="510" height="240" as="geometry" />
        </mxCell>
      </root>
    </mxGraphModel>
  </diagram>
  <diagram id="1N9MUwGKsVIrfUl34N3B" name="flowchart">
    <mxGraphModel dx="1034" dy="509" grid="1" gridSize="10" guides="1" tooltips="1" connect="1" arrows="1" fold="1" page="1" pageScale="1" pageWidth="850" pageHeight="1100" math="0" shadow="0">
      <root>
        <mxCell id="0" />
        <mxCell id="1" parent="0" />
        <mxCell id="G1Mtcgm_ZPWNT1dmOo4D-1" style="edgeStyle=orthogonalEdgeStyle;rounded=0;orthogonalLoop=1;jettySize=auto;html=1;exitX=0.5;exitY=1;exitDx=0;exitDy=0;entryX=0.5;entryY=0;entryDx=0;entryDy=0;" parent="1" source="G1Mtcgm_ZPWNT1dmOo4D-2" target="G1Mtcgm_ZPWNT1dmOo4D-4" edge="1">
          <mxGeometry relative="1" as="geometry" />
        </mxCell>
        <mxCell id="G1Mtcgm_ZPWNT1dmOo4D-2" value="Start" style="rounded=1;whiteSpace=wrap;html=1;fontSize=12;glass=0;strokeWidth=1;shadow=0;" parent="1" vertex="1">
          <mxGeometry x="370" y="100" width="80" height="30" as="geometry" />
        </mxCell>
        <mxCell id="G1Mtcgm_ZPWNT1dmOo4D-3" style="edgeStyle=orthogonalEdgeStyle;rounded=0;orthogonalLoop=1;jettySize=auto;html=1;exitX=0.5;exitY=1;exitDx=0;exitDy=0;entryX=0.5;entryY=0;entryDx=0;entryDy=0;" parent="1" source="G1Mtcgm_ZPWNT1dmOo4D-4" target="G1Mtcgm_ZPWNT1dmOo4D-6" edge="1">
          <mxGeometry relative="1" as="geometry" />
        </mxCell>
        <mxCell id="G1Mtcgm_ZPWNT1dmOo4D-4" value="Create class Log object for main process" style="rounded=0;whiteSpace=wrap;html=1;" parent="1" vertex="1">
          <mxGeometry x="340" y="160" width="140" height="40" as="geometry" />
        </mxCell>
        <mxCell id="G1Mtcgm_ZPWNT1dmOo4D-5" style="edgeStyle=orthogonalEdgeStyle;rounded=0;orthogonalLoop=1;jettySize=auto;html=1;exitX=0.5;exitY=1;exitDx=0;exitDy=0;entryX=0.5;entryY=0;entryDx=0;entryDy=0;" parent="1" source="G1Mtcgm_ZPWNT1dmOo4D-6" target="G1Mtcgm_ZPWNT1dmOo4D-8" edge="1">
          <mxGeometry relative="1" as="geometry" />
        </mxCell>
        <mxCell id="mzz98R4WJEfQ6iORSbBR-9" style="edgeStyle=orthogonalEdgeStyle;rounded=0;orthogonalLoop=1;jettySize=auto;html=1;exitX=0.5;exitY=1;exitDx=0;exitDy=0;entryX=0.5;entryY=0;entryDx=0;entryDy=0;" edge="1" parent="1" source="G1Mtcgm_ZPWNT1dmOo4D-6" target="mzz98R4WJEfQ6iORSbBR-2">
          <mxGeometry relative="1" as="geometry" />
        </mxCell>
        <mxCell id="mzz98R4WJEfQ6iORSbBR-16" style="edgeStyle=orthogonalEdgeStyle;rounded=0;orthogonalLoop=1;jettySize=auto;html=1;exitX=0.5;exitY=1;exitDx=0;exitDy=0;entryX=0.5;entryY=0;entryDx=0;entryDy=0;" edge="1" parent="1" source="G1Mtcgm_ZPWNT1dmOo4D-6" target="NHDitrxnjSwB4h_8cUjW-2">
          <mxGeometry relative="1" as="geometry" />
        </mxCell>
        <mxCell id="G1Mtcgm_ZPWNT1dmOo4D-6" value="Create a database if datasbase doesnot exist or directly connect to the existing database, create all tables needed" style="rounded=0;whiteSpace=wrap;html=1;" parent="1" vertex="1">
          <mxGeometry x="320" y="230" width="180" height="70" as="geometry" />
        </mxCell>
        <mxCell id="G1Mtcgm_ZPWNT1dmOo4D-7" style="edgeStyle=orthogonalEdgeStyle;rounded=0;orthogonalLoop=1;jettySize=auto;html=1;exitX=0.5;exitY=1;exitDx=0;exitDy=0;entryX=0.5;entryY=0;entryDx=0;entryDy=0;" parent="1" source="G1Mtcgm_ZPWNT1dmOo4D-8" target="G1Mtcgm_ZPWNT1dmOo4D-10" edge="1">
          <mxGeometry relative="1" as="geometry" />
        </mxCell>
        <mxCell id="G1Mtcgm_ZPWNT1dmOo4D-8" value="Create a client, connect it to emqx on own computer" style="rounded=0;whiteSpace=wrap;html=1;" parent="1" vertex="1">
          <mxGeometry x="72.5" y="350" width="135" height="60" as="geometry" />
        </mxCell>
        <mxCell id="G1Mtcgm_ZPWNT1dmOo4D-9" style="edgeStyle=orthogonalEdgeStyle;rounded=0;orthogonalLoop=1;jettySize=auto;html=1;exitX=0.5;exitY=1;exitDx=0;exitDy=0;entryX=0.5;entryY=0;entryDx=0;entryDy=0;" parent="1" source="G1Mtcgm_ZPWNT1dmOo4D-10" target="G1Mtcgm_ZPWNT1dmOo4D-11" edge="1">
          <mxGeometry relative="1" as="geometry" />
        </mxCell>
        <mxCell id="G1Mtcgm_ZPWNT1dmOo4D-10" value="Receive new data &lt;br&gt;from broker ?" style="rhombus;whiteSpace=wrap;html=1;" parent="1" vertex="1">
          <mxGeometry x="70" y="450" width="140" height="70" as="geometry" />
        </mxCell>
        <mxCell id="G1Mtcgm_ZPWNT1dmOo4D-11" value="Insert new data to database, log information to log file" style="rounded=0;whiteSpace=wrap;html=1;" parent="1" vertex="1">
          <mxGeometry x="80" y="550" width="120" height="60" as="geometry" />
        </mxCell>
        <mxCell id="G1Mtcgm_ZPWNT1dmOo4D-12" value="Yes" style="text;html=1;strokeColor=none;fillColor=none;align=center;verticalAlign=middle;whiteSpace=wrap;rounded=0;" parent="1" vertex="1">
          <mxGeometry x="120" y="520" width="60" height="30" as="geometry" />
        </mxCell>
        <mxCell id="G1Mtcgm_ZPWNT1dmOo4D-13" value="" style="endArrow=classic;html=1;rounded=0;exitX=0;exitY=0.5;exitDx=0;exitDy=0;" parent="1" source="G1Mtcgm_ZPWNT1dmOo4D-10" edge="1">
          <mxGeometry width="50" height="50" relative="1" as="geometry">
            <mxPoint x="140" y="500" as="sourcePoint" />
            <mxPoint x="140" y="430" as="targetPoint" />
            <Array as="points">
              <mxPoint x="50" y="485" />
              <mxPoint x="50" y="430" />
            </Array>
          </mxGeometry>
        </mxCell>
        <mxCell id="G1Mtcgm_ZPWNT1dmOo4D-14" value="No" style="text;html=1;strokeColor=none;fillColor=none;align=center;verticalAlign=middle;whiteSpace=wrap;rounded=0;" parent="1" vertex="1">
          <mxGeometry x="30" y="440" width="60" height="30" as="geometry" />
        </mxCell>
        <mxCell id="G1Mtcgm_ZPWNT1dmOo4D-15" value="" style="endArrow=none;html=1;rounded=0;exitX=0.5;exitY=1;exitDx=0;exitDy=0;" parent="1" source="G1Mtcgm_ZPWNT1dmOo4D-11" edge="1">
          <mxGeometry width="50" height="50" relative="1" as="geometry">
            <mxPoint x="140" y="590" as="sourcePoint" />
            <mxPoint x="50" y="430" as="targetPoint" />
            <Array as="points">
              <mxPoint x="140" y="640" />
              <mxPoint x="50" y="640" />
            </Array>
          </mxGeometry>
        </mxCell>
        <mxCell id="NHDitrxnjSwB4h_8cUjW-1" style="edgeStyle=orthogonalEdgeStyle;rounded=0;orthogonalLoop=1;jettySize=auto;html=1;exitX=0.5;exitY=1;exitDx=0;exitDy=0;entryX=0.5;entryY=0;entryDx=0;entryDy=0;" parent="1" source="NHDitrxnjSwB4h_8cUjW-2" target="NHDitrxnjSwB4h_8cUjW-4" edge="1">
          <mxGeometry relative="1" as="geometry" />
        </mxCell>
        <mxCell id="NHDitrxnjSwB4h_8cUjW-2" value="Create a client, connect it to emqx on own computer" style="rounded=0;whiteSpace=wrap;html=1;" parent="1" vertex="1">
          <mxGeometry x="342.5" y="350" width="135" height="60" as="geometry" />
        </mxCell>
        <mxCell id="NHDitrxnjSwB4h_8cUjW-3" style="edgeStyle=orthogonalEdgeStyle;rounded=0;orthogonalLoop=1;jettySize=auto;html=1;exitX=0.5;exitY=1;exitDx=0;exitDy=0;entryX=0.5;entryY=0;entryDx=0;entryDy=0;" parent="1" source="NHDitrxnjSwB4h_8cUjW-4" target="NHDitrxnjSwB4h_8cUjW-5" edge="1">
          <mxGeometry relative="1" as="geometry" />
        </mxCell>
        <mxCell id="NHDitrxnjSwB4h_8cUjW-4" value="Receive new data &lt;br&gt;from broker ?" style="rhombus;whiteSpace=wrap;html=1;" parent="1" vertex="1">
          <mxGeometry x="340" y="450" width="140" height="70" as="geometry" />
        </mxCell>
        <mxCell id="NHDitrxnjSwB4h_8cUjW-5" value="Insert new data to database, log information to log file" style="rounded=0;whiteSpace=wrap;html=1;" parent="1" vertex="1">
          <mxGeometry x="350" y="550" width="120" height="60" as="geometry" />
        </mxCell>
        <mxCell id="NHDitrxnjSwB4h_8cUjW-6" value="Yes" style="text;html=1;strokeColor=none;fillColor=none;align=center;verticalAlign=middle;whiteSpace=wrap;rounded=0;" parent="1" vertex="1">
          <mxGeometry x="390" y="520" width="60" height="30" as="geometry" />
        </mxCell>
        <mxCell id="NHDitrxnjSwB4h_8cUjW-7" value="" style="endArrow=classic;html=1;rounded=0;exitX=0;exitY=0.5;exitDx=0;exitDy=0;" parent="1" source="NHDitrxnjSwB4h_8cUjW-4" edge="1">
          <mxGeometry width="50" height="50" relative="1" as="geometry">
            <mxPoint x="410" y="500" as="sourcePoint" />
            <mxPoint x="410" y="430" as="targetPoint" />
            <Array as="points">
              <mxPoint x="320" y="485" />
              <mxPoint x="320" y="430" />
            </Array>
          </mxGeometry>
        </mxCell>
        <mxCell id="NHDitrxnjSwB4h_8cUjW-8" value="No" style="text;html=1;strokeColor=none;fillColor=none;align=center;verticalAlign=middle;whiteSpace=wrap;rounded=0;" parent="1" vertex="1">
          <mxGeometry x="220" y="440" width="60" height="30" as="geometry" />
        </mxCell>
        <mxCell id="NHDitrxnjSwB4h_8cUjW-9" value="" style="endArrow=none;html=1;rounded=0;exitX=0.5;exitY=1;exitDx=0;exitDy=0;" parent="1" source="NHDitrxnjSwB4h_8cUjW-5" edge="1">
          <mxGeometry width="50" height="50" relative="1" as="geometry">
            <mxPoint x="410" y="590" as="sourcePoint" />
            <mxPoint x="320" y="430" as="targetPoint" />
            <Array as="points">
              <mxPoint x="410" y="640" />
              <mxPoint x="320" y="640" />
            </Array>
          </mxGeometry>
        </mxCell>
        <mxCell id="mzz98R4WJEfQ6iORSbBR-1" style="edgeStyle=orthogonalEdgeStyle;rounded=0;orthogonalLoop=1;jettySize=auto;html=1;exitX=0.5;exitY=1;exitDx=0;exitDy=0;entryX=0.5;entryY=0;entryDx=0;entryDy=0;" edge="1" parent="1" source="mzz98R4WJEfQ6iORSbBR-2">
          <mxGeometry relative="1" as="geometry">
            <mxPoint x="650" y="450" as="targetPoint" />
          </mxGeometry>
        </mxCell>
        <mxCell id="mzz98R4WJEfQ6iORSbBR-2" value="Create a client, connect it to emqx on own computer" style="rounded=0;whiteSpace=wrap;html=1;" vertex="1" parent="1">
          <mxGeometry x="582.5" y="350" width="135" height="60" as="geometry" />
        </mxCell>
        <mxCell id="mzz98R4WJEfQ6iORSbBR-15" style="edgeStyle=orthogonalEdgeStyle;rounded=0;orthogonalLoop=1;jettySize=auto;html=1;exitX=0.5;exitY=1;exitDx=0;exitDy=0;" edge="1" parent="1" source="mzz98R4WJEfQ6iORSbBR-5">
          <mxGeometry relative="1" as="geometry">
            <mxPoint x="650" y="430" as="targetPoint" />
            <Array as="points">
              <mxPoint x="650" y="650" />
              <mxPoint x="531" y="650" />
            </Array>
          </mxGeometry>
        </mxCell>
        <mxCell id="mzz98R4WJEfQ6iORSbBR-5" value="wait 2 seconds" style="rounded=0;whiteSpace=wrap;html=1;" vertex="1" parent="1">
          <mxGeometry x="590" y="570" width="120" height="60" as="geometry" />
        </mxCell>
        <mxCell id="mzz98R4WJEfQ6iORSbBR-14" style="edgeStyle=orthogonalEdgeStyle;rounded=0;orthogonalLoop=1;jettySize=auto;html=1;exitX=0.5;exitY=1;exitDx=0;exitDy=0;entryX=0.5;entryY=0;entryDx=0;entryDy=0;" edge="1" parent="1" source="mzz98R4WJEfQ6iORSbBR-10" target="mzz98R4WJEfQ6iORSbBR-5">
          <mxGeometry relative="1" as="geometry" />
        </mxCell>
        <mxCell id="mzz98R4WJEfQ6iORSbBR-10" value="Send sensor-data and actuator data to bakend" style="rounded=0;whiteSpace=wrap;html=1;" vertex="1" parent="1">
          <mxGeometry x="560" y="450" width="180" height="70" as="geometry" />
        </mxCell>
      </root>
    </mxGraphModel>
  </diagram>
</mxfile>
